<svg width="34" height="32" viewBox="0 0 34 32" fill="none" xmlns="http://www.w3.org/2000/svg">
<path d="M0 4C0 1.79086 1.79086 0 4 0H30C32.2091 0 34 1.79086 34 4V28C34 30.2091 32.2091 32 30 32H4C1.79086 32 0 30.2091 0 28V4Z" fill="white"/>
<g clip-path="url(#clip0_1_331)">
<path d="M12.1875 16C12.1875 15.453 11.9702 14.9284 11.5834 14.5416C11.1966 14.1548 10.672 13.9375 10.125 13.9375C9.57799 13.9375 9.05339 14.1548 8.66659 14.5416C8.2798 14.9284 8.0625 15.453 8.0625 16C8.0625 16.547 8.2798 17.0716 8.66659 17.4584C9.05339 17.8452 9.57799 18.0625 10.125 18.0625C10.672 18.0625 11.1966 17.8452 11.5834 17.4584C11.9702 17.0716 12.1875 16.547 12.1875 16ZM19.0625 16C19.0625 15.453 18.8452 14.9284 18.4584 14.5416C18.0716 14.1548 17.547 13.9375 17 13.9375C16.453 13.9375 15.9284 14.1548 15.5416 14.5416C15.1548 14.9284 14.9375 15.453 14.9375 16C14.9375 16.547 15.1548 17.0716 15.5416 17.4584C15.9284 17.8452 16.453 18.0625 17 18.0625C17.547 18.0625 18.0716 17.8452 18.4584 17.4584C18.8452 17.0716 19.0625 16.547 19.0625 16ZM23.875 18.0625C24.1459 18.0625 24.4141 18.0092 24.6643 17.9055C24.9145 17.8019 25.1419 17.6499 25.3334 17.4584C25.5249 17.2669 25.6769 17.0395 25.7805 16.7893C25.8842 16.5391 25.9375 16.2709 25.9375 16C25.9375 15.7291 25.8842 15.4609 25.7805 15.2107C25.6769 14.9605 25.5249 14.7331 25.3334 14.5416C25.1419 14.3501 24.9145 14.1981 24.6643 14.0945C24.4141 13.9908 24.1459 13.9375 23.875 13.9375C23.6041 13.9375 23.3359 13.9908 23.0857 14.0945C22.8355 14.1981 22.6081 14.3501 22.4166 14.5416C22.2251 14.7331 22.0731 14.9605 21.9695 15.2107C21.8658 15.4609 21.8125 15.7291 21.8125 16C21.8125 16.2709 21.8658 16.5391 21.9695 16.7893C22.0731 17.0395 22.2251 17.2669 22.4166 17.4584C22.6081 17.6499 22.8355 17.8019 23.0857 17.9055C23.3359 18.0092 23.6041 18.0625 23.875 18.0625Z" fill="#3E97FF"/>
</g>
<defs>
<clipPath id="clip0_1_331">
<rect width="5.5" height="22" fill="white" transform="translate(28 13.25) rotate(90)"/>
</clipPath>
</defs>
</svg>

